<svg width="32" height="32" viewBox="0 0 32 32" fill="none" xmlns="http://www.w3.org/2000/svg">
<path d="M28.2296 0H25.2626C23.4321 0 22.5169 0 21.8 0.45392C21.0832 0.90784 20.7226 1.71573 20.0014 3.33152L13.3506 18.2324C12.9283 19.1786 12.7171 19.6517 12.9944 20.5895C13.2716 21.5273 13.4633 21.6566 13.8466 21.9152C14.366 22.2658 15.0523 22.5313 15.9396 22.5313C19.1713 22.5313 22.9028 18.048 22.9028 18.048L30.7496 4.05188C31.7635 2.24343 32.2704 1.3392 31.854 0.669602C31.4375 0 30.3682 0 28.2296 0Z" fill="#FD6161"/>
<path d="M5.90325 14.3104H4.08651C1.70851 14.3104 0.519508 14.3104 0.11647 15.0421C-0.286567 15.7738 0.382454 16.7178 1.7205 18.6058L9.66325 29.8132C10.6883 31.2595 11.2009 31.9827 11.9358 31.9997C12.6707 32.0167 13.2189 31.318 14.3151 29.9206L22.7396 19.182C22.7396 19.182 18.5439 24.088 14.8644 23.4447C11.8611 22.9196 9.7873 18.8174 8.78082 16.2923C8.38284 15.2938 8.18385 14.7945 7.81747 14.5525C7.45108 14.3104 6.93514 14.3104 5.90325 14.3104Z" fill="#FD6161"/>
</svg>
